<svg width="80" height="80" viewBox="0 0 80 80" fill="none" xmlns="http://www.w3.org/2000/svg">
<path d="M0.771655 80.0001C0.266685 79.5989 -0.195226 79.1741 0.0846607 78.4363C0.356719 77.714 0.965423 77.6475 1.62502 77.6494C3.96393 77.6592 6.3048 77.6534 8.75332 77.6534C8.75332 77.303 8.75332 77.0016 8.75332 76.7002C8.75332 68.4445 8.75332 60.1908 8.75332 51.9351C8.75332 50.4123 9.05865 50.1051 10.5755 50.1031C14.3002 50.1011 18.0229 50.1011 21.7475 50.1031C23.3564 50.1031 23.6186 50.3615 23.6186 51.9429C23.6186 60.1712 23.6186 68.4014 23.6186 76.6297C23.6186 76.937 23.6186 77.2443 23.6186 77.6005C26.6132 77.6005 29.5393 77.6005 32.5476 77.6005C32.5476 77.2384 32.5476 76.9076 32.5476 76.5749C32.5476 66.4187 32.5476 56.2626 32.5476 46.1064C32.5476 45.8989 32.5457 45.6895 32.5476 45.482C32.5652 44.1902 32.9214 43.8399 34.2504 43.8379C37.4016 43.834 40.5528 43.836 43.7039 43.836C44.4594 43.836 45.2149 43.8242 45.9685 43.8399C47.0273 43.8634 47.4031 44.247 47.4403 45.3196C47.4482 45.5544 47.4423 45.7874 47.4423 46.0222C47.4423 56.2038 47.4423 66.3855 47.4423 76.569C47.4423 76.9018 47.4423 77.2325 47.4423 77.6064C50.429 77.6064 53.3375 77.6064 56.3713 77.6064C56.3713 77.2854 56.3713 76.9605 56.3713 76.6336C56.3713 61.739 56.3713 46.8423 56.3713 31.9476C56.3713 30.3153 56.6472 30.0354 58.2698 30.0354C61.9944 30.0334 65.7171 30.0334 69.4418 30.0354C70.8901 30.0374 71.2366 30.3857 71.2366 31.838C71.2366 46.7327 71.2366 61.6293 71.2366 76.524C71.2366 76.8607 71.2366 77.1973 71.2366 77.6494C71.5497 77.6494 71.8237 77.6494 72.0978 77.6494C74.1803 77.6494 76.2648 77.671 78.3473 77.6377C79.0617 77.626 79.6156 77.8197 79.9972 78.4323C79.9972 78.953 79.9972 79.4736 79.9972 79.9942C53.5939 80.0001 27.1828 80.0001 0.771655 80.0001ZM68.8761 32.4467C65.4646 32.4467 62.1236 32.4467 58.7806 32.4467C58.7806 47.5371 58.7806 62.5708 58.7806 77.5888C62.1823 77.5888 65.5234 77.5888 68.8761 77.5888C68.8761 62.5277 68.8761 47.5313 68.8761 32.4467ZM45.0466 77.6162C45.0466 67.1312 45.0466 56.7029 45.0466 46.2434C41.6606 46.2434 38.3195 46.2434 34.9472 46.2434C34.9472 56.7284 34.9472 67.1547 34.9472 77.6162C38.3176 77.6162 41.641 77.6162 45.0466 77.6162ZM21.2269 77.6201C21.2269 69.2137 21.2269 60.8738 21.2269 52.5125C17.8408 52.5125 14.5018 52.5125 11.1451 52.5125C11.1451 60.9091 11.1451 69.247 11.1451 77.6201C14.5135 77.6201 17.835 77.6201 21.2269 77.6201Z" fill="#6160B5"/>
<path d="M64.8194 8.52706C64.2205 8.52706 63.6627 8.60731 63.1342 8.51336C61.3081 8.18846 60.0985 6.64223 60.1455 4.78088C60.1905 3.00761 61.543 1.51032 63.416 1.26174C66.7179 0.823321 70.0218 0.39664 73.3315 0.0267191C75.6645 -0.233595 77.475 1.43594 77.4946 3.82379C77.522 7.05325 77.5141 10.2827 77.4965 13.5102C77.4867 15.5419 76.1323 17.1292 74.2964 17.3269C72.3176 17.5402 70.7244 16.3913 70.2136 14.3832C70.1823 14.2599 70.1568 14.1365 70.0824 13.8077C69.826 14.1346 69.6656 14.3675 69.4777 14.5769C65.798 18.7126 61.7583 22.4647 57.4092 25.8859C57.2057 26.0464 57.0021 26.2226 56.7673 26.3244C56.2349 26.5534 55.728 26.4751 55.3698 25.9955C55.0214 25.5278 55.0273 25.0189 55.3991 24.557C55.5596 24.3573 55.771 24.1929 55.9746 24.0324C61.0341 20.0279 65.663 15.581 69.7928 10.6174C69.9924 10.3767 70.1627 10.0557 70.423 9.93629C70.8379 9.74643 71.3781 9.51156 71.75 9.63878C72.0808 9.7523 72.4116 10.3101 72.4605 10.7055C72.5682 11.5784 72.4918 12.4729 72.4997 13.3576C72.5094 14.4145 73.0085 15.0173 73.8502 14.9997C74.6526 14.984 75.1517 14.3851 75.1537 13.3791C75.1615 10.2534 75.1635 7.12959 75.1537 4.00385C75.1498 2.8158 74.5176 2.2345 73.3961 2.37346C70.2195 2.76883 67.0448 3.17007 63.8721 3.59087C63.5531 3.63393 63.1107 3.74158 62.9776 3.96862C62.7408 4.37573 62.5353 4.92181 62.6077 5.36414C62.7075 5.98264 63.279 6.28797 63.9151 6.22925C65.0034 6.12943 66.0857 5.98459 67.1681 5.83584C67.8394 5.74385 68.4873 5.68318 68.8827 6.3917C69.2643 7.07478 68.8787 7.56214 68.4658 8.06711C59.0161 19.6227 47.3411 28.1955 33.6365 34.034C27.0112 36.8563 20.149 38.9251 13.0462 40.1386C10.5115 40.5712 7.94166 40.8041 5.38745 41.127C5.20738 41.1505 5.02536 41.1662 4.84529 41.1995C4.03695 41.3482 3.53589 41.9354 3.61418 42.6361C3.69638 43.3701 4.27377 43.877 5.10365 43.8065C7.02176 43.6441 8.94769 43.509 10.8482 43.2193C23.0634 41.3639 34.5485 37.3867 45.2665 31.2331C46.8675 30.3152 48.4137 29.2994 49.9834 28.3266C50.2046 28.1896 50.416 28.0369 50.6391 27.9039C51.3731 27.4635 52.0542 27.5476 52.4398 28.1192C52.8332 28.7005 52.661 29.3581 51.9446 29.8454C51.1284 30.4013 50.2966 30.9396 49.4569 31.4621C39.563 37.6334 28.8921 41.8845 17.5107 44.378C13.4905 45.2588 9.43896 45.9184 5.32286 46.1572C3.2697 46.2766 1.61778 45.022 1.29288 43.0452C0.999293 41.2601 2.14428 39.4145 3.94104 38.9878C4.91967 38.7549 5.95114 38.747 6.95912 38.6413C13.7684 37.9328 20.3878 36.3709 26.8428 34.1181C41.5066 28.9999 54.1348 20.801 64.4651 9.14556C64.5689 9.02812 64.6687 8.90873 64.7626 8.78346C64.7881 8.74823 64.7842 8.69147 64.8194 8.52706Z" fill="#6160B5"/>
</svg>
