<svg width="80" height="74" viewBox="0 0 80 74" fill="none" xmlns="http://www.w3.org/2000/svg">
<g id="Icon">
<g id="Group">
<path id="Vector" d="M0.00626753 60.7735C0.13567 60.2217 0.237941 59.6636 0.39865 59.1222C1.65719 54.8517 4.37047 51.9942 8.66371 50.74C9.27524 50.5623 9.33368 50.2467 9.33159 49.7346C9.32325 41.5719 9.32533 33.4091 9.32742 25.2464C9.32742 24.9329 9.31698 24.6173 9.35664 24.31C9.43386 23.7121 9.80537 23.3735 10.396 23.3296C11.0222 23.2836 11.4563 23.5846 11.6045 24.2013C11.6755 24.5002 11.6734 24.8221 11.6734 25.1315C11.6775 30.79 11.6754 36.4485 11.6754 42.1091C11.6754 42.3913 11.6754 42.6735 11.6754 43.1375C11.9134 42.8637 12.047 42.732 12.1555 42.5815C13.4328 40.8319 14.9898 39.3833 16.887 38.336C17.4005 38.0518 17.5382 37.7278 17.5361 37.1696C17.5194 27.9639 17.5236 18.7581 17.5236 9.55231C17.5236 8.22705 17.7261 7.97412 19.0723 7.67102C17.5862 6.08656 16.1294 4.53345 14.6037 2.90509C13.1093 4.49583 11.6421 6.05521 10.1518 7.64176C11.521 8.03056 11.6734 8.23332 11.6734 9.6192C11.6734 12.8007 11.6755 15.9821 11.6692 19.1636C11.6692 19.473 11.665 19.7949 11.5857 20.0917C11.4313 20.6707 11.0076 20.9487 10.4169 20.9132C9.82416 20.8777 9.45056 20.5516 9.35664 19.9558C9.31698 19.7008 9.32325 19.4354 9.32325 19.1762C9.32116 16.465 9.32116 13.7518 9.32116 11.0406C9.32116 10.7605 9.32116 10.4825 9.32116 10.1104C8.6011 10.1104 7.9666 10.1961 7.37177 10.0812C6.97104 10.0038 6.45135 9.72163 6.30525 9.38718C6.15706 9.05273 6.25516 8.40682 6.50353 8.13299C8.87451 5.53472 11.2914 2.97825 13.7146 0.428062C14.2635 -0.150957 14.9439 -0.140505 15.4991 0.446875C17.9014 2.98034 20.3037 5.5159 22.6517 8.09954C22.9168 8.3901 23.019 9.05691 22.875 9.42271C22.7477 9.74462 22.1946 10.008 21.7876 10.0853C21.2137 10.1961 20.6001 10.1125 19.9363 10.1125C19.9363 19.0695 19.9363 27.9701 19.9363 36.7641C21.94 36.5697 23.9666 36.3732 26.0537 36.1726C26.0537 30.999 26.0537 25.6896 26.0537 20.2527C25.461 20.2527 24.8328 20.3405 24.2442 20.2234C23.8184 20.1377 23.2549 19.8618 23.1046 19.519C22.9543 19.1741 23.0942 18.5031 23.3634 18.2083C25.678 15.6644 28.0449 13.1686 30.4075 10.6685C31.0545 9.98292 31.7245 9.97038 32.3611 10.6435C34.7258 13.1414 37.0717 15.6581 39.4302 18.1603C39.8059 18.5574 39.9687 18.988 39.7516 19.5085C39.5241 20.0562 39.0984 20.2798 38.5098 20.2589C37.9421 20.2401 37.3723 20.2548 36.7482 20.2548C36.7482 22.2176 36.7482 24.126 36.7482 25.93C38.754 25.2757 40.766 24.6193 42.8761 23.9316C42.8761 20.1043 42.8761 16.1013 42.8761 11.9687C42.2583 11.9687 41.6301 12.0565 41.0415 11.9395C40.6157 11.8538 40.0522 11.5799 39.904 11.235C39.7537 10.8901 39.8914 10.217 40.1586 9.9223C42.492 7.35957 44.8755 4.84282 47.259 2.32816C47.8518 1.70107 48.5614 1.71361 49.1667 2.35325C51.5293 4.85327 53.8753 7.36793 56.2337 9.87213C56.6324 10.2944 56.8515 10.819 56.4967 11.2747C56.2358 11.6092 55.7391 11.8538 55.3091 11.9416C54.7602 12.0544 54.1716 11.9687 53.5267 11.9687C53.5059 12.23 53.4704 12.4537 53.4704 12.6773C53.4662 17.0064 53.4599 21.3355 53.485 25.6645C53.4871 25.9446 53.6603 26.346 53.8815 26.4839C56.2003 27.9304 58.0809 29.8054 59.6274 32.2532C59.6274 29.2954 59.6274 26.4881 59.6274 23.5637C59.0368 23.5637 58.4211 23.5512 57.8074 23.5679C57.2439 23.5826 56.766 23.3568 56.67 22.8259C56.599 22.4245 56.6741 21.8392 56.9288 21.5591C59.2643 18.9985 61.6457 16.4817 64.0292 13.965C64.6699 13.2877 65.3337 13.2961 65.9849 13.9838C68.3475 16.4817 70.7143 18.9797 73.0289 21.5236C73.2982 21.8204 73.3838 22.4308 73.3086 22.8551C73.2147 23.3861 72.7096 23.5867 72.1523 23.5679C71.5596 23.5491 70.9669 23.5637 70.2885 23.5637C70.2885 24.3685 70.2885 25.0918 70.2885 25.8129C70.2885 27.9513 70.299 30.0897 70.2823 32.2281C70.276 33.1959 69.6039 33.777 68.79 33.5387C68.1012 33.336 67.9342 32.8009 67.9363 32.1361C67.9488 29.1114 67.9405 26.0868 67.9426 23.0621C67.9426 21.6365 68.0469 21.4943 69.4474 21.0992C67.9697 19.5273 66.515 17.9805 64.9997 16.3668C63.4928 17.9659 62.0381 19.5106 60.6084 21.0282C61.0467 21.2853 61.5768 21.4316 61.8147 21.7807C62.0485 22.1235 62.0402 22.667 62.0402 23.1248C62.0548 28.0537 62.0485 32.9827 62.0485 37.9117C62.0485 38.1939 62.0485 38.4782 62.0485 38.7081C64.0208 39.0008 65.9327 39.285 67.9447 39.5819C67.9447 38.8482 67.9384 38.0538 67.9467 37.2595C67.9572 36.3628 68.3475 35.8862 69.0717 35.8674C69.8252 35.8465 70.276 36.3523 70.2885 37.2616C70.3011 38.2002 70.3198 39.1408 70.2802 40.0773C70.2593 40.5601 70.4263 40.8152 70.8458 41.0514C75.4312 43.6225 78.3553 47.4749 79.5533 52.6025C81.8638 62.5001 74.9491 72.5107 64.8661 73.7586C62.683 74.0283 60.4497 73.9196 58.2395 73.9551C56.599 73.9823 54.9585 73.9614 53.318 73.9593C52.0282 73.9593 51.4772 73.6144 51.4688 72.8054C51.4605 71.9923 52.0511 71.6035 53.293 71.6035C56.3402 71.6035 59.3853 71.6139 62.4325 71.6014C71.1463 71.5617 77.9191 64.5069 77.6332 55.7798C77.3639 47.5836 70.1716 40.8988 61.9984 41.2499C61.7897 41.2583 61.5831 41.2771 61.3744 41.2792C60.0866 41.3001 59.7693 41.0096 59.6754 39.7156C59.1912 33.0956 53.5413 27.3075 47.0002 26.4839C39.1672 25.4973 31.9666 30.7628 30.5787 38.336C30.372 39.4669 29.7647 39.7366 28.5353 39.3289C21.3034 36.9292 13.7125 41.1559 11.9572 48.5786C11.7673 49.3855 11.6921 50.2237 11.6274 51.0536C11.5231 52.3579 11.3519 52.5335 10.108 52.799C6.23846 53.6205 3.67336 55.947 2.6778 59.7639C1.09366 65.8384 5.60396 71.5805 11.8842 71.5993C19.4083 71.6223 26.9345 71.6056 34.4586 71.6056C38.754 71.6056 43.0514 71.6035 47.3467 71.6077C47.6306 71.6077 47.9269 71.5993 48.1983 71.6704C48.8035 71.8272 49.1249 72.241 49.0811 72.8765C49.0373 73.5099 48.6699 73.8736 48.0417 73.9405C47.7579 73.9718 47.4698 73.9614 47.1839 73.9614C35.6233 73.9614 24.0605 73.8631 12.502 73.999C5.41195 74.0826 0.682504 68.8861 0.114803 63.7272C0.104367 63.6289 0.0396556 63.5349 0 63.4387C0.00626141 62.5482 0.00626753 61.6598 0.00626753 60.7735ZM43.7047 9.54186C45.0175 9.76344 45.2784 10.0728 45.2784 11.3312C45.2804 15.2673 45.2784 19.2033 45.2784 23.1415C45.2784 23.4174 45.2784 23.6933 45.2784 23.8292C47.305 24.218 49.1959 24.5817 51.1244 24.9517C51.1244 24.7009 51.1244 24.4145 51.1244 24.1302C51.1244 19.8806 51.1244 15.631 51.1244 11.3813C51.1244 10.077 51.3519 9.7927 52.6794 9.51887C51.1766 7.91768 49.7052 6.34994 48.2045 4.75085C46.706 6.34785 45.2471 7.90305 43.7047 9.54186ZM28.456 36.5091C28.5583 36.4004 28.6001 36.3732 28.6209 36.3335C28.6585 36.2666 28.6919 36.1935 28.7148 36.1203C29.6854 32.9179 31.4615 30.2507 33.9765 28.0517C34.2019 27.8531 34.3313 27.4308 34.3355 27.1089C34.3647 24.7113 34.3418 22.3137 34.3606 19.914C34.3647 19.4312 34.3355 18.8584 34.5714 18.4884C34.803 18.1247 35.3561 17.9659 35.7902 17.7025C34.3605 16.1849 32.8912 14.6255 31.401 13.0411C29.8607 14.682 28.4059 16.2309 26.9178 17.8174C28.2369 18.0662 28.456 18.3275 28.456 19.59C28.4581 24.9601 28.456 30.3301 28.456 35.7001C28.456 35.9447 28.456 36.1893 28.456 36.5091Z" fill="#EC9CCC"/>
<path id="Vector_2" d="M62.0734 55.6544C62.0692 59.9417 58.5942 63.4262 54.326 63.422C50.0745 63.4179 46.5723 59.904 46.5723 55.6439C46.5723 51.3713 50.0557 47.8951 54.3364 47.8972C58.6359 47.8972 62.0776 51.3483 62.0734 55.6544ZM59.7254 55.6502C59.7275 52.6402 57.3398 50.2467 54.3364 50.2467C51.3518 50.2447 48.9203 52.6694 48.9203 55.6439C48.9203 58.608 51.3748 61.0683 54.3301 61.0704C57.3022 61.0725 59.7233 58.6394 59.7254 55.6502Z" fill="#EC9CCC"/>
<path id="Vector_3" d="M30.163 47.8951C31.7033 47.893 33.0662 48.4261 34.3143 49.2873C35.0406 49.7869 35.2222 50.5059 34.8027 51.087C34.3936 51.6556 33.732 51.7204 33.0099 51.2376C31.9851 50.5519 30.8831 50.0879 29.6371 50.2948C29.1236 50.3805 28.5622 50.5937 28.174 50.924C27.2953 51.6723 27.527 52.8513 28.5893 53.3049C29.6892 53.7752 30.8142 54.1849 31.9058 54.6699C32.5424 54.9541 33.1935 55.2614 33.7404 55.6837C36.0446 57.4625 36.0425 60.4057 33.7675 62.2285C30.9039 64.5236 26.6023 63.1482 24.822 60.9785C24.3962 60.4601 24.486 59.8978 24.9556 59.4316C25.4231 58.9655 26.0827 58.9822 26.6274 59.5215C27.4977 60.3827 28.533 60.8698 29.7289 61.0244C30.7537 61.1561 31.7075 60.9764 32.4818 60.2343C33.3584 59.394 33.3375 58.3614 32.3942 57.6068C31.9955 57.289 31.5134 57.057 31.0396 56.8522C29.9418 56.3776 28.8335 55.9303 27.7169 55.4997C26.3164 54.9604 25.5129 53.932 25.3396 52.475C25.1643 50.9888 25.7445 49.7701 26.9342 48.865C27.8901 48.146 28.988 47.8889 30.163 47.8951Z" fill="#EC9CCC"/>
<path id="Vector_4" d="M39.9687 56.8334C39.9687 58.2548 39.9687 59.5717 39.9687 60.9973C40.3131 60.9973 40.6157 60.9952 40.9183 60.9973C42.037 61.0015 43.1578 60.9785 44.2765 61.0245C44.9632 61.0517 45.4182 61.5659 45.4182 62.1783C45.4203 62.7908 44.9674 63.3196 44.2786 63.3343C42.4315 63.3719 40.5823 63.3803 38.7352 63.3343C37.8941 63.3134 37.5768 62.8389 37.5747 61.8063C37.5685 57.6862 37.5727 53.5662 37.5727 49.4462C37.5727 49.3939 37.5726 49.3417 37.5747 49.2894C37.6206 48.3676 38.0235 47.9495 38.9314 47.9432C40.6491 47.9307 42.3689 47.9307 44.0866 47.9432C44.9152 47.9495 45.4453 48.4533 45.4203 49.1514C45.3953 49.8204 44.8818 50.2781 44.0887 50.2865C42.7404 50.3011 41.39 50.2907 39.9833 50.2907C39.9833 51.6912 39.9833 53.029 39.9833 54.488C41.0289 54.488 42.06 54.488 43.0931 54.488C43.3791 54.488 43.6692 54.4713 43.9509 54.5048C44.6188 54.5821 44.9757 54.9834 44.9987 55.6482C45.0216 56.2753 44.5667 56.779 43.8758 56.8167C42.993 56.8647 42.1059 56.8334 41.221 56.8355C40.8328 56.8355 40.4467 56.8334 39.9687 56.8334Z" fill="#EC9CCC"/>
</g>
</g>
</svg>
