<svg width="128" height="33" viewBox="0 0 128 33" fill="none" xmlns="http://www.w3.org/2000/svg">
<g clip-path="url(#clip0_179_1116)">
<path fill-rule="evenodd" clip-rule="evenodd" d="M16.5141 25.3979L13.9012 28.0109C15.9567 29.2128 18.3432 29.8922 20.9039 29.8922C23.4472 29.8922 25.8511 29.2128 27.9066 28.0109L25.2937 25.3979C23.9698 26.025 22.4717 26.3734 20.9039 26.3734C19.3361 26.356 17.8555 26.0076 16.5141 25.3979ZM7.38621 0L14.9289 7.54273C11.4276 10.0163 9.80755 14.4061 10.8527 18.552C11.0095 19.1965 11.236 19.8062 11.5147 20.3985L8.90173 23.0114C8.58817 22.4714 8.30946 21.914 8.06558 21.3391C6.16684 16.7578 6.88104 11.4447 9.91207 7.52531L7.40364 5.01688C2.21256 11.3751 2.21256 20.6598 7.40364 27.018C11.8979 22.5237 16.4096 18.012 20.9039 13.5177C25.3982 18.012 29.9099 22.5237 34.4042 27.018C39.5952 20.6598 39.5952 11.3751 34.4042 5.01688L31.8957 7.52531C34.9442 11.4622 35.641 16.7578 33.7248 21.3391C33.4809 21.914 33.2022 22.4714 32.8887 23.0114L30.2757 20.3985C30.5544 19.8062 30.7635 19.1965 30.9377 18.552C31.9828 14.3887 30.3628 10.0163 26.8614 7.54273L34.4216 0C44.2463 8.29178 44.316 23.656 34.4216 32.0174C29.9099 27.5057 25.4156 23.0114 20.9039 18.4997C16.3922 23.0114 11.8979 27.5057 7.38621 32.0174C-2.50818 23.6734 -2.42108 8.29178 7.38621 0Z" fill="#29313D" fill-opacity="0.8"/>
<path d="M57.3112 20.712C55.6389 16.0261 53.9143 11.3924 52.1201 6.77621C52.7646 6.79363 53.3047 6.79363 53.7053 6.79363C54.1582 6.79363 54.6808 6.79363 55.2905 6.77621L58.1473 15.2248L59.3493 18.5519C59.6106 18.0468 59.9938 17.2455 60.5164 16.1306C61.039 15.0157 61.4048 14.197 61.6313 13.6744C61.3177 12.7163 60.9171 11.5666 60.4467 10.2079C59.9764 8.84915 59.5409 7.71687 59.1925 6.77621C59.7674 6.79363 60.2725 6.79363 60.708 6.79363C61.1958 6.79363 61.701 6.79363 62.2235 6.77621C62.5371 8.01301 62.9029 9.23239 63.2861 10.4343C63.861 9.19755 64.3836 7.97817 64.8539 6.77621C65.4462 6.79363 65.9165 6.79363 66.2823 6.79363C66.7004 6.79363 67.1707 6.79363 67.7107 6.77621C67.2753 7.64719 66.7352 8.76205 66.0907 10.1208C65.4462 11.4795 64.9236 12.6118 64.5404 13.5002C64.6971 13.988 64.9759 14.8241 65.3765 15.9912C65.7946 17.1584 66.0907 17.9945 66.2823 18.4648L69.0172 12.6292L71.0031 8.25688L71.6476 6.75879C72.3096 6.77621 72.8321 6.77621 73.2154 6.77621C73.6509 6.77621 74.1735 6.77621 74.8006 6.75879L72.8844 10.5737L68.8779 18.7958L67.972 20.6946C67.2404 20.6771 66.6133 20.6771 66.1081 20.6771C65.5681 20.6771 64.941 20.6771 64.2268 20.6946C63.8262 19.3184 63.3732 17.9771 62.9029 16.6532C62.2584 17.9771 61.6487 19.3184 61.0738 20.6946C60.3422 20.6771 59.7151 20.6771 59.1925 20.6771C58.6351 20.6946 58.008 20.712 57.3112 20.712Z" fill="#29313D" fill-opacity="0.8"/>
<path d="M75.8456 12.6118C75.9327 12.124 76.0023 11.7756 76.0198 11.584C76.0372 11.3924 76.0894 11.0789 76.1417 10.6782C77.0649 10.4692 77.8837 10.3124 78.5979 10.2253C79.3121 10.1382 79.9915 10.0859 80.6534 10.0859C81.4024 10.0859 82.0818 10.173 82.7089 10.3472C83.336 10.5214 83.8238 10.8001 84.1722 11.1834C84.5206 11.5666 84.6948 12.1066 84.6948 12.8208C84.6948 13.2041 84.6425 14.197 84.538 15.7822C84.4335 17.3674 84.3638 19.0048 84.3464 20.712C83.8238 20.6945 83.3535 20.6945 82.918 20.6945C82.4999 20.6945 82.0121 20.6945 81.4547 20.712C81.5418 19.8932 81.6115 18.9351 81.6637 17.8551L81.8031 15.3118C81.5418 15.486 81.3502 15.608 81.2108 15.6777C81.0715 15.7473 80.9147 15.817 80.7579 15.8693C80.5837 15.9215 80.2876 16.0086 79.8521 16.1306C79.4166 16.2525 79.0856 16.357 78.8243 16.4441C78.563 16.5312 78.3366 16.6357 78.1275 16.7403C77.9185 16.8448 77.7443 16.9841 77.605 17.1235C77.4656 17.2629 77.3611 17.4022 77.2914 17.559C77.2217 17.7158 77.1869 17.8725 77.1869 18.0467C77.1869 18.3255 77.274 18.5868 77.4308 18.7784C77.5875 18.97 77.814 19.1268 78.0579 19.2139C78.3017 19.301 78.5979 19.3358 78.9463 19.3358C79.1553 19.3358 79.3992 19.3184 79.6431 19.2835C79.8869 19.2487 80.2179 19.1616 80.6186 19.0222C80.4792 19.4055 80.305 19.9803 80.1134 20.7642C79.6256 20.8513 79.2424 20.9036 78.9637 20.921C78.685 20.9384 78.4063 20.9558 78.1624 20.9558C77.3088 20.9558 76.5946 20.8339 76.0546 20.6074C75.5146 20.381 75.0965 20.0152 74.8352 19.51C74.5739 19.0048 74.4346 18.4997 74.4346 17.9945C74.4346 17.6983 74.4868 17.4196 74.5913 17.1235C74.6959 16.8274 74.8352 16.5835 75.0443 16.3396C75.2533 16.0957 75.4972 15.8693 75.8107 15.6428C76.1243 15.4164 76.5772 15.2073 77.1695 14.9983C77.7617 14.7893 78.5456 14.5802 79.5211 14.3712C79.7824 14.3189 80.0437 14.2492 80.3224 14.1796C80.6011 14.1099 80.8276 14.0228 80.9844 13.9531C81.1412 13.8834 81.2979 13.7789 81.4199 13.657C81.5418 13.535 81.6289 13.4131 81.6986 13.2912C81.7683 13.1692 81.7857 13.0299 81.7857 12.8905C81.7857 12.6292 81.6986 12.4028 81.5244 12.2111C81.3502 12.0195 81.1237 11.8976 80.845 11.8279C80.5663 11.7582 80.2702 11.7234 79.9392 11.7234C78.7198 11.7234 77.3437 12.0195 75.8456 12.6118Z" fill="#29313D" fill-opacity="0.8"/>
<path d="M86.6631 25.398C86.8373 23.4993 86.9941 21.0431 87.116 18.0121C87.2554 14.9985 87.325 12.5423 87.325 10.6609C88.6141 10.4345 89.6244 10.2777 90.3212 10.208C91.0354 10.1384 91.7322 10.1035 92.429 10.1035C93.3523 10.1035 94.1884 10.208 94.9549 10.4345C95.7213 10.6435 96.331 11.0093 96.7839 11.5319C97.2369 12.0545 97.5852 12.6294 97.8117 13.3087C98.0382 13.9881 98.1427 14.6849 98.1427 15.4165C98.1427 16.1656 98.0382 16.8798 97.8291 17.5591C97.6201 18.2385 97.2891 18.8656 96.8536 19.4056C96.4181 19.9457 95.913 20.3463 95.3381 20.6076C94.7633 20.8515 94.1361 20.9734 93.4568 20.9734C93.0561 20.9734 92.6555 20.9212 92.2722 20.8341C91.889 20.747 91.5406 20.6076 91.2445 20.4508C90.9483 20.294 90.7045 20.1373 90.5128 19.9805C90.3212 19.8237 90.0774 19.5798 89.7812 19.2663L89.6244 23.7083L89.6419 24.3877C89.6419 24.4748 89.6244 24.8232 89.6244 25.4154C88.9973 25.4154 88.5096 25.398 88.1786 25.398H86.6631ZM90.147 12.5423C90.0948 12.9081 90.0599 13.2216 90.0425 13.4829L89.9728 14.6152C89.938 15.103 89.938 15.4688 89.938 15.6952C89.938 16.1133 89.9728 16.514 90.0599 16.8798C90.147 17.263 90.3212 17.6114 90.5651 17.925C90.809 18.2385 91.1225 18.4824 91.4709 18.6566C91.8193 18.8308 92.1851 18.9005 92.551 18.9005C93.0735 18.9005 93.5439 18.7611 93.9619 18.465C94.38 18.1688 94.711 17.7333 94.9549 17.1585C95.1987 16.5836 95.3033 15.974 95.3033 15.3294C95.3033 14.6152 95.1813 14.0055 94.92 13.5178C94.6587 13.03 94.3278 12.6642 93.8923 12.4378C93.4568 12.2113 92.969 12.1068 92.429 12.1068C91.7496 12.1416 90.9658 12.2636 90.147 12.5423Z" fill="#29313D" fill-opacity="0.8"/>
<path d="M99.9023 20.7123L100.111 18.0645L100.338 12.9779L100.442 8.62301C100.46 7.83913 100.46 7.22944 100.46 6.79395C101.174 6.81137 101.679 6.81137 101.975 6.81137C102.324 6.81137 102.794 6.81137 103.369 6.79395L103.16 10.1037L102.916 15.3993L102.811 19.3536L102.794 20.7297C102.184 20.7123 101.714 20.7123 101.366 20.7123C101 20.6949 100.512 20.7123 99.9023 20.7123ZM103.16 14.9115L105.233 12.3857C105.407 12.1766 105.616 11.8979 105.86 11.5844C106.104 11.2708 106.417 10.8527 106.801 10.3476C107.515 10.365 108.02 10.365 108.351 10.365C108.804 10.365 109.361 10.365 110.058 10.3476L106.696 14.1973L106.086 14.9289C106.592 15.7128 107.968 17.6464 110.232 20.7297C109.623 20.7123 109.1 20.7123 108.664 20.7123C108.229 20.7123 107.689 20.7123 107.044 20.7297C106.644 20.0852 106.33 19.5626 106.086 19.1794C105.842 18.7961 105.616 18.4477 105.39 18.1516L103.648 15.678C103.595 15.5909 103.421 15.3296 103.16 14.9115Z" fill="#29313D" fill-opacity="0.8"/>
<path d="M111.382 20.7122C111.486 19.6844 111.556 18.8308 111.591 18.1515C111.661 17.0715 111.713 15.7998 111.765 14.3888C111.817 12.9778 111.852 11.6191 111.87 10.33C112.532 10.3474 113.037 10.3474 113.368 10.3474C113.664 10.3474 114.169 10.3474 114.848 10.33C114.761 11.5146 114.674 12.6468 114.622 13.7269C114.587 14.8069 114.535 16.0263 114.517 17.4198C114.5 18.8134 114.483 19.9109 114.483 20.7122C113.855 20.6948 113.368 20.6948 112.984 20.6948C112.636 20.6948 112.096 20.7122 111.382 20.7122ZM111.939 8.55322C111.974 7.85643 111.974 7.31642 111.974 6.93318V6.61963C112.601 6.63705 113.089 6.63705 113.49 6.63705C114.012 6.63705 114.517 6.63705 114.97 6.61963C114.953 6.79383 114.935 6.98544 114.935 7.19448L114.883 8.55322C114.361 8.5358 113.89 8.5358 113.455 8.5358C113.019 8.5358 112.514 8.55322 111.939 8.55322Z" fill="#29313D" fill-opacity="0.8"/>
<path d="M127.495 20.7122C126.903 20.6948 126.433 20.6948 126.119 20.6948C125.718 20.6948 125.265 20.6948 124.743 20.7122L124.76 19.0225C124.569 19.3012 124.394 19.5451 124.255 19.7193C124.116 19.8935 123.924 20.0677 123.698 20.2245C123.471 20.3812 123.21 20.5206 122.949 20.6251C122.687 20.7296 122.374 20.7993 122.008 20.869C121.66 20.9387 121.294 20.9735 120.893 20.9735C120.127 20.9735 119.465 20.869 118.907 20.6425C118.35 20.4161 117.897 20.0851 117.566 19.6322C117.235 19.1793 117.078 18.5348 117.078 17.6986V17.4896L117.235 14.8592L117.392 11.3927C117.392 11.114 117.409 10.7656 117.409 10.3475C118.054 10.3649 118.559 10.3649 118.925 10.3649C119.308 10.3649 119.778 10.3649 120.336 10.3475L120.005 14.9986C119.987 15.3644 119.97 15.6605 119.952 15.9044C119.935 16.1483 119.935 16.3399 119.935 16.4444C119.935 16.9321 120.005 17.3328 120.161 17.6638C120.318 17.9947 120.562 18.2386 120.928 18.3954C121.294 18.5696 121.677 18.6567 122.095 18.6567C122.496 18.6567 122.861 18.587 123.21 18.4302C123.523 18.2909 123.802 18.0993 124.029 17.8554C124.255 17.6115 124.447 17.2805 124.603 16.8625C124.725 16.5663 124.812 16.1483 124.865 15.6257C124.917 15.2599 124.952 14.6153 125.004 13.6921C125.056 12.5946 125.091 11.4624 125.126 10.3301C125.805 10.3475 126.311 10.3475 126.676 10.3475C127.077 10.3475 127.53 10.3475 128.035 10.3301C127.948 11.3056 127.861 12.525 127.774 13.9708C127.687 15.4166 127.617 16.636 127.6 17.5767C127.53 18.5522 127.513 19.5799 127.495 20.7122Z" fill="#29313D" fill-opacity="0.8"/>
</g>
<defs>
<clipPath id="clip0_179_1116">
<rect width="128" height="32.0174" fill="white"/>
</clipPath>
</defs>
</svg>
