<svg width="128" height="37" viewBox="0 0 128 37" fill="none" xmlns="http://www.w3.org/2000/svg">
<rect width="128" height="37" fill="#E5E5E5"/>
<g id="01_ Home 01" clip-path="url(#clip0_0_1)">
<rect width="1920" height="6631" transform="translate(-536 -4554)" fill="white"/>
<g id="Partners">
<rect id="BG" x="-536" y="-361" width="1923" height="564" fill="white"/>
<g id="2">
<rect id="Rectangle 77" x="-41" y="-47" width="210" height="130" fill="#FDF9F8"/>
<g id="2_2">
<g id="Frame" clip-path="url(#clip1_0_1)">
<path id="Vector" d="M39.9742 16.8908C41.6974 16.8908 43.0795 18.2729 43.0795 19.9961C43.0795 21.7193 41.6974 23.1014 39.9742 23.1014C38.251 23.1014 36.8689 21.7193 36.8689 19.9961C36.8689 19.4217 37.0304 18.8652 37.2997 18.3985L33.4943 12.1879C33.4225 12.1879 33.3507 12.1879 33.2789 12.1879C33.1533 12.1879 33.0456 12.1879 32.9199 12.17L26.458 21.6654C26.6913 22.0962 26.817 22.5988 26.817 23.1193C26.817 24.8425 25.4349 26.2247 23.7117 26.2247C21.9885 26.2247 20.6064 24.8425 20.6064 23.1193C20.6064 22.6885 20.6961 22.2936 20.8397 21.9167L16.4061 16.5677C16.2087 16.6215 15.9933 16.6395 15.7779 16.6395C15.6881 16.6395 15.5804 16.6395 15.4907 16.6215L5.81573 31.5557C6.06703 32.0045 6.21063 32.525 6.21063 33.0815C6.21063 34.8047 4.81055 36.1868 3.10531 36.1868C1.40008 36.1868 0 34.8047 0 33.0815C0 31.3583 1.40008 29.9762 3.10531 29.9762C3.19506 29.9762 3.30276 29.9762 3.39251 29.9941L13.0675 15.0599C12.8162 14.6111 12.6726 14.0906 12.6726 13.5341C12.6726 11.811 14.0547 10.4288 15.7779 10.4288C17.5011 10.4288 18.8832 11.811 18.8832 13.5341C18.8832 13.9649 18.7934 14.3598 18.6498 14.7368L23.0834 20.1038C23.2988 20.0679 23.5142 20.032 23.7296 20.032C23.8553 20.032 23.963 20.032 24.0886 20.0499L30.5506 10.5545C30.3172 10.1237 30.1916 9.62109 30.1916 9.10055C30.1916 7.37737 31.5737 5.99523 33.2969 5.99523C35.0201 5.99523 36.4022 7.37737 36.4022 9.10055C36.4022 9.67494 36.2406 10.2314 35.9714 10.6981L39.7947 16.9087C39.8306 16.8908 39.9024 16.8908 39.9742 16.8908ZM33.7277 24.2861C34.0508 23.5501 34.8944 23.227 35.6303 23.5501C36.3663 23.8732 36.6894 24.7169 36.3663 25.4528C34.9303 28.6838 32.5968 31.4121 29.6531 33.3148C26.817 35.1637 23.4245 36.2406 19.7807 36.2406C17.86 36.2406 16.0112 35.9355 14.2521 35.3791C12.4392 34.8047 10.7699 33.9431 9.26209 32.8661C8.6159 32.3994 8.45435 31.5019 8.92105 30.8557C9.38774 30.2095 10.2852 30.048 10.9314 30.5147C12.2059 31.4301 13.6239 32.1481 15.1317 32.6327C16.5856 33.0994 18.1472 33.3507 19.7807 33.3507C22.8501 33.3507 25.7041 32.4532 28.0914 30.8916C30.5506 29.2941 32.525 26.9965 33.7277 24.2861ZM5.25929 22.7603C5.49264 23.5142 5.07979 24.322 4.3259 24.5733C3.57201 24.8066 2.76427 24.3938 2.51297 23.6399C2.22577 22.7603 2.01038 21.8449 1.86678 20.9295C1.72318 19.9961 1.65138 19.0627 1.65138 18.1293C1.65138 13.1213 3.67971 8.59795 6.96452 5.31314C10.2493 2.02833 14.7727 0 19.7807 0C21.6834 0 23.5322 0.305147 25.2733 0.843641C27.0503 1.40008 28.7197 2.24372 30.2454 3.32071C30.8916 3.76946 31.0532 4.66695 30.5865 5.33109C30.1377 5.97728 29.2402 6.13883 28.5761 5.67214C27.3196 4.7926 25.9195 4.0746 24.3938 3.60791C22.9398 3.14121 21.3962 2.88992 19.7807 2.88992C15.5804 2.88992 11.7571 4.59515 9.0108 7.35942C6.24653 10.1237 4.5413 13.929 4.5413 18.1293C4.5413 18.955 4.59515 19.7448 4.7208 20.4807C4.84645 21.2705 5.02594 22.0244 5.25929 22.7603Z" fill="#29313D" fill-opacity="0.8"/>
<g id="Group">
<path id="Vector_2" d="M51.3903 11.9724C52.0724 10.8057 53.0058 9.90822 54.1725 9.24408C55.3393 8.59788 56.6317 8.25684 58.0138 8.25684C59.6113 8.25684 61.0294 8.65173 62.2679 9.42357C63.5064 10.2134 64.4039 11.3083 64.9783 12.7443H62.0346C61.6397 11.9545 61.1012 11.3622 60.4191 10.9852C59.737 10.5903 58.9292 10.4108 58.0318 10.4108C57.0445 10.4108 56.165 10.6262 55.3752 11.075C54.6033 11.5237 53.993 12.1519 53.5623 12.9956C53.1315 13.8213 52.8981 14.7906 52.8981 15.9035C52.8981 17.0163 53.1135 17.9856 53.5623 18.8113C54.011 19.637 54.6033 20.2832 55.3752 20.7319C56.147 21.1807 57.0266 21.414 58.0318 21.414C58.9292 21.414 59.737 21.2166 60.4191 20.8396C61.1012 20.4627 61.6397 19.8704 62.0346 19.0806H64.9783C64.4219 20.5165 63.5244 21.6294 62.2679 22.4013C61.0294 23.1731 59.6113 23.568 58.0138 23.568C56.6137 23.568 55.3213 23.2449 54.1546 22.5808C52.9879 21.9346 52.0724 21.0191 51.3903 19.8524C50.7082 18.6857 50.3672 17.3753 50.3672 15.9035C50.3672 14.4316 50.7082 13.1392 51.3903 11.9724Z" fill="#29313D" fill-opacity="0.8"/>
<path id="Vector_3" d="M71.7271 11.8649C72.3195 11.5239 73.0375 11.3623 73.8452 11.3623V13.9112H73.217C72.2477 13.9112 71.5297 14.1625 71.0271 14.6471C70.5245 15.1318 70.2912 15.9754 70.2912 17.196V23.4425H67.832V11.5598H70.2912V13.2829C70.6501 12.6726 71.1348 12.2059 71.7271 11.8649Z" fill="#29313D" fill-opacity="0.8"/>
<path id="Vector_4" d="M86.8948 18.4162H77.8301C77.9019 19.3675 78.2609 20.1214 78.8892 20.6958C79.5174 21.2702 80.2892 21.5574 81.2226 21.5574C82.5509 21.5574 83.4843 21.001 84.0228 19.906H86.6794C86.3204 21.001 85.6742 21.8985 84.7228 22.5806C83.7895 23.2806 82.6227 23.6216 81.2226 23.6216C80.0918 23.6216 79.0687 23.3703 78.1712 22.8498C77.2737 22.3472 76.5736 21.6292 76.0531 20.6958C75.5325 19.7624 75.2812 18.7034 75.2812 17.4828C75.2812 16.2622 75.5325 15.1852 76.0172 14.2698C76.5198 13.3364 77.2019 12.6364 78.0994 12.1338C78.9969 11.6312 80.02 11.3799 81.1867 11.3799C82.2996 11.3799 83.3048 11.6312 84.1844 12.1158C85.0639 12.6005 85.746 13.2826 86.2306 14.1801C86.7153 15.0596 86.9666 16.0827 86.9666 17.2315C86.9845 17.6444 86.9486 18.0393 86.8948 18.4162ZM84.4177 16.4238C84.3997 15.5263 84.0767 14.7903 83.4484 14.2518C82.8202 13.7134 82.0304 13.4262 81.097 13.4262C80.2533 13.4262 79.5174 13.6954 78.9251 14.2339C78.3148 14.7724 77.9558 15.5083 77.8481 16.4238H84.4177Z" fill="#29313D" fill-opacity="0.8"/>
<path id="Vector_5" d="M91.5084 22.8502C90.611 22.3476 89.893 21.6296 89.3724 20.6962C88.8519 19.7628 88.6006 18.7038 88.6006 17.4832C88.6006 16.2805 88.8698 15.2036 89.3904 14.2702C89.9289 13.3368 90.6469 12.6188 91.5623 12.1162C92.4777 11.6136 93.5009 11.3623 94.6497 11.3623C95.7984 11.3623 96.8036 11.6136 97.737 12.1162C98.6525 12.6188 99.3884 13.3368 99.9089 14.2702C100.429 15.2036 100.699 16.2805 100.699 17.4832C100.699 18.6858 100.429 19.7628 99.873 20.6962C99.3346 21.6296 98.5807 22.3476 97.6473 22.8681C96.7139 23.3707 95.6728 23.64 94.542 23.64C93.4291 23.622 92.4059 23.3707 91.5084 22.8502ZM96.319 21.0372C96.8754 20.7321 97.3242 20.2834 97.6652 19.6731C98.0063 19.0628 98.1858 18.3448 98.1858 17.4832C98.1858 16.6216 98.0242 15.8857 97.6832 15.2933C97.3601 14.701 96.9293 14.2522 96.3728 13.9471C95.8343 13.6419 95.242 13.4983 94.6138 13.4983C93.9855 13.4983 93.3932 13.6419 92.8547 13.9471C92.3162 14.2522 91.8854 14.701 91.5803 15.2933C91.2572 15.8857 91.1136 16.6216 91.1136 17.4832C91.1136 18.7576 91.4367 19.7449 92.1008 20.4449C92.747 21.1449 93.5727 21.486 94.5599 21.486C95.1702 21.486 95.7625 21.3424 96.319 21.0372Z" fill="#29313D" fill-opacity="0.8"/>
<path id="Vector_6" d="M111.63 11.9546C112.366 12.3495 112.94 12.9239 113.371 13.6778C113.784 14.4317 113.999 15.3651 113.999 16.4421V23.4425H111.558V16.8011C111.558 15.7421 111.289 14.9164 110.768 14.3599C110.23 13.7855 109.512 13.5163 108.596 13.5163C107.681 13.5163 106.945 13.8035 106.407 14.3599C105.868 14.9343 105.599 15.7421 105.599 16.8011V23.4425H103.14V11.5598H105.599V12.9239C105.994 12.4393 106.514 12.0623 107.142 11.7752C107.771 11.5059 108.435 11.3623 109.135 11.3623C110.05 11.3623 110.894 11.5598 111.63 11.9546Z" fill="#29313D" fill-opacity="0.8"/>
<path id="Vector_7" d="M127.91 18.4162H118.846C118.918 19.3675 119.277 20.1214 119.905 20.6958C120.533 21.2702 121.305 21.5574 122.238 21.5574C123.567 21.5574 124.5 21.001 125.038 19.906H127.695C127.336 21.001 126.69 21.8985 125.738 22.5806C124.805 23.2806 123.638 23.6216 122.238 23.6216C121.107 23.6216 120.084 23.3703 119.187 22.8498C118.289 22.3472 117.589 21.6292 117.069 20.6958C116.548 19.7624 116.297 18.7034 116.297 17.4828C116.297 16.2622 116.548 15.1852 117.033 14.2698C117.535 13.3364 118.218 12.6364 119.115 12.1338C120.012 11.6312 121.036 11.3799 122.202 11.3799C123.315 11.3799 124.32 11.6312 125.2 12.1158C126.08 12.6005 126.762 13.2826 127.246 14.1801C127.731 15.0596 127.982 16.0827 127.982 17.2315C128 17.6444 127.964 18.0393 127.91 18.4162ZM125.433 16.4238C125.415 15.5263 125.092 14.7903 124.464 14.2518C123.836 13.7134 123.046 13.4262 122.113 13.4262C121.269 13.4262 120.533 13.6954 119.941 14.2339C119.33 14.7724 118.971 15.5083 118.864 16.4238H125.433Z" fill="#29313D" fill-opacity="0.8"/>
</g>
</g>
</g>
</g>
</g>
</g>
<defs>
<clipPath id="clip0_0_1">
<rect width="1920" height="6631" fill="white" transform="translate(-536 -4554)"/>
</clipPath>
<clipPath id="clip1_0_1">
<rect width="128" height="36.2406" fill="white"/>
</clipPath>
</defs>
</svg>
