<svg width="110" height="26" viewBox="0 0 110 26" fill="none" xmlns="http://www.w3.org/2000/svg">
<rect width="110" height="26" fill="#E5E5E5"/>
<g id="01_ Home 01" clip-path="url(#clip0_0_1)">
<rect width="1920" height="6631" transform="translate(-785 -4559)" fill="white"/>
<g id="Partners">
<rect id="BG" x="-785" y="-366" width="1923" height="564" fill="white"/>
<g id="3">
<rect id="Rectangle 78" x="-50" y="-52" width="210" height="130" fill="#FDF9F8"/>
<g id="3_2">
<g id="Frame" clip-path="url(#clip1_0_1)">
<path id="Vector" fill-rule="evenodd" clip-rule="evenodd" d="M5.48902 0C5.48902 3.03511 3.03511 5.48902 0 5.48902V9.49278C5.24363 9.49278 9.49278 5.24363 9.49278 0H5.48902ZM15.4984 14.194C14.7235 15.2789 13.8582 16.2733 12.9024 17.1903C9.31196 19.9025 4.84325 21.5041 0 21.5041V25.482L0.413291 25.5078C6.08313 25.4174 11.3009 23.4801 15.4855 20.2642C19.683 23.4801 24.9008 25.4174 30.5577 25.5078L30.9968 25.4949V21.5041C26.1536 21.5041 21.6849 19.9025 18.0944 17.2032C17.1387 16.2863 16.2733 15.2789 15.4984 14.194ZM15.2659 8.56287C15.3434 8.42081 15.4209 8.27874 15.4984 8.13667C15.5759 8.27874 15.6534 8.42081 15.7309 8.56287C18.7273 13.8969 24.4487 17.5003 30.9968 17.5003V13.4965C23.5447 13.4965 17.5003 7.45216 17.5003 0H13.4965C13.4965 3.03511 12.4891 5.83774 10.8101 8.08501C8.34331 11.3784 4.41705 13.4965 0 13.4965V17.5003C4.93366 17.5003 9.40237 15.4597 12.5795 12.1663C13.6257 11.0943 14.5298 9.88024 15.2659 8.56287ZM21.504 0C21.504 5.24363 25.7532 9.49278 30.9968 9.49278V5.48902C27.9617 5.48902 25.5078 3.03511 25.5078 0H21.504Z" fill="#29313D" fill-opacity="0.8"/>
<g id="Group">
<path id="Vector_2" d="M50.2016 21.62L46.482 15.1623H44.4543V21.62H41.8066V5.46289H47.3861C48.6259 5.46289 49.6721 5.68245 50.5374 6.10866C51.4027 6.53486 52.0356 7.12897 52.4618 7.85223C52.888 8.57549 53.1076 9.38916 53.1076 10.2932C53.1076 11.3523 52.7976 12.308 52.1906 13.1604C51.5836 14.0258 50.6407 14.607 49.3621 14.9169L53.3659 21.6071H50.2016V21.62ZM44.4672 13.0442H47.399C48.3935 13.0442 49.1426 12.7988 49.6463 12.2951C50.15 11.8043 50.3953 11.1327 50.3953 10.2932C50.3953 9.45373 50.15 8.80796 49.6463 8.3301C49.1555 7.85223 48.3935 7.61975 47.3861 7.61975H44.4543V13.0442H44.4672Z" fill="#29313D" fill-opacity="0.8"/>
<path id="Vector_3" d="M56.6461 6.62541C56.3232 6.30253 56.1553 5.90215 56.1553 5.41137C56.1553 4.92059 56.3232 4.53313 56.6461 4.19733C56.9689 3.86153 57.3693 3.70654 57.8601 3.70654C58.325 3.70654 58.7254 3.87444 59.0483 4.19733C59.3712 4.52021 59.5391 4.92059 59.5391 5.41137C59.5391 5.90215 59.3712 6.28961 59.0483 6.62541C58.7254 6.96121 58.325 7.11619 57.8601 7.11619C57.3693 7.11619 56.9689 6.9483 56.6461 6.62541ZM59.1516 8.80811V21.6201H56.504V8.80811H59.1516Z" fill="#29313D" fill-opacity="0.8"/>
<path id="Vector_4" d="M71.8086 9.23441C72.6093 9.64771 73.2293 10.2676 73.6813 11.0942C74.1333 11.9208 74.3529 12.9024 74.3529 14.0648V21.6202H71.7311V14.4651C71.7311 13.3157 71.4469 12.4374 70.8657 11.8304C70.2975 11.2234 69.5096 10.9134 68.5152 10.9134C67.5207 10.9134 66.7328 11.2234 66.1516 11.8304C65.5705 12.4374 65.2734 13.3157 65.2734 14.4651V21.6202H62.6387V8.80821H65.2863V10.2676C65.7254 9.73811 66.2808 9.32482 66.9524 9.04068C67.624 8.75655 68.3473 8.60156 69.1093 8.60156C70.1037 8.60156 71.0078 8.80821 71.8086 9.23441Z" fill="#29313D" fill-opacity="0.8"/>
<path id="Vector_5" d="M83.0971 10.9778H80.7207V21.6201H78.0472V10.9778H76.5361V8.80806H78.0472V7.90398C78.0472 6.43163 78.4347 5.35966 79.2225 4.68806C80.0104 4.01646 81.2373 3.68066 82.9034 3.68066V5.88919C82.1026 5.88919 81.5344 6.04417 81.2115 6.34123C80.8886 6.63828 80.7207 7.16781 80.7207 7.90398V8.80806H83.0971V10.9778Z" fill="#29313D" fill-opacity="0.8"/>
<path id="Vector_6" d="M85.3699 11.74C85.8994 10.7455 86.6356 9.97059 87.5526 9.42815C88.4696 8.8857 89.4899 8.60156 90.6135 8.60156C91.6209 8.60156 92.4991 8.79529 93.2482 9.19567C93.9973 9.59604 94.6043 10.0868 95.0564 10.668V8.80821H97.7299V21.6202H95.0564V19.7088C94.6043 20.3158 93.9973 20.8195 93.2224 21.2199C92.4475 21.6202 91.5692 21.8269 90.5748 21.8269C89.4769 21.8269 88.4696 21.5427 87.5526 20.9745C86.6356 20.4062 85.9123 19.6184 85.3828 18.598C84.8533 17.5777 84.582 16.4283 84.582 15.1496C84.582 13.871 84.8274 12.7345 85.3699 11.74ZM94.501 12.9024C94.1394 12.2566 93.6615 11.7529 93.0674 11.4171C92.4733 11.0813 91.8405 10.9005 91.1559 10.9005C90.4714 10.9005 89.8386 11.0684 89.2445 11.4042C88.6633 11.74 88.1983 12.2179 87.8238 12.8636C87.4622 13.5094 87.2813 14.2714 87.2813 15.1496C87.2813 16.0279 87.4622 16.8028 87.8238 17.4744C88.1854 18.146 88.6633 18.6497 89.2703 18.9984C89.8773 19.3471 90.4973 19.515 91.1689 19.515C91.8534 19.515 92.4862 19.3471 93.0803 18.9984C93.6744 18.6626 94.1523 18.1589 94.5139 17.5002C94.8756 16.8416 95.0564 16.0666 95.0564 15.1884C95.0435 14.3231 94.8627 13.5481 94.501 12.9024Z" fill="#29313D" fill-opacity="0.8"/>
<path id="Vector_7" d="M103.852 4.41699V21.6202H101.204V4.41699H103.852Z" fill="#29313D" fill-opacity="0.8"/>
<path id="Vector_8" d="M109.999 4.41699V21.6202H107.352V4.41699H109.999Z" fill="#29313D" fill-opacity="0.8"/>
</g>
</g>
</g>
</g>
</g>
</g>
<defs>
<clipPath id="clip0_0_1">
<rect width="1920" height="6631" fill="white" transform="translate(-785 -4559)"/>
</clipPath>
<clipPath id="clip1_0_1">
<rect width="110" height="25.4949" fill="white"/>
</clipPath>
</defs>
</svg>
