<svg width="128" height="27" viewBox="0 0 128 27" fill="none" xmlns="http://www.w3.org/2000/svg">
<g clip-path="url(#clip0_179_1063)">
<path fill-rule="evenodd" clip-rule="evenodd" d="M28.8115 10.1523L26.35 12.6138L26.3627 12.7413C26.4137 13.5576 26.3372 14.3611 26.1587 15.1519C25.9801 15.9299 25.6868 16.6951 25.2914 17.3966L25.1638 17.6389L27.6381 19.0674L27.7784 18.825C28.4799 17.5879 28.9263 16.2232 29.1304 14.833C29.3217 13.4428 29.2707 12.0271 28.9391 10.6497L28.8115 10.1523ZM29.8446 2.52531L17.8558 14.5141L5.86692 2.52531L5.68836 2.75488C3.46915 5.31845 2.18099 8.45596 1.87489 11.6827C1.55604 14.9095 2.21925 18.2383 3.89003 21.1845L4.03033 21.4269L6.53013 19.9857L6.37708 19.7433C5.28023 17.7919 4.71905 15.6365 4.68079 13.4811C4.65528 11.3129 5.15269 9.15743 6.19852 7.18055L6.2878 7.01475C7.94583 8.67278 9.60386 10.3308 11.2619 11.9761L11.2491 12.0526C11.0578 13.1367 11.1344 14.2463 11.4532 15.2794C11.7721 16.2997 12.346 17.2563 13.124 18.0343L13.2515 18.1618L9.20849 20.4958L9.43806 20.7509C9.73141 21.0825 10.0503 21.4014 10.3819 21.6947C12.5118 23.5823 15.1902 24.5261 17.8685 24.5261C20.5469 24.5261 23.2252 23.5695 25.3424 21.6819C25.674 21.3886 25.9801 21.0825 26.2862 20.7381L26.5158 20.4831L22.4982 18.1618L22.6258 18.0343C23.4038 17.2563 23.965 16.3125 24.2966 15.2794C24.6154 14.2463 24.7047 13.1495 24.5006 12.0526L24.4751 11.9888L29.3982 7.06576L29.462 7.00199L30.2782 8.69829L30.2655 8.71104L30.3165 8.87684C30.9414 10.6624 31.171 12.55 31.0052 14.3994C30.8394 16.2615 30.291 18.0725 29.3599 19.7306L29.2196 19.9729L31.7194 21.4269L31.8597 21.1845C33.5305 18.2383 34.181 14.9095 33.8749 11.6827C33.556 8.45596 32.2679 5.33121 30.0614 2.75488L29.8446 2.52531ZM6.56839 14.8202C6.77246 16.2232 7.21885 17.5879 7.92033 18.8378L8.06062 19.0801L10.5604 17.6389L10.4329 17.3966C10.0375 16.6951 9.74416 15.9299 9.5656 15.1519C9.38704 14.3611 9.32327 13.5576 9.36154 12.7413L9.37429 12.6138L6.87449 10.1267L6.7597 10.6114C6.4281 12.0016 6.36433 13.4301 6.56839 14.8202ZM35.6222 11.4404C36.0558 15.6748 34.9972 20.0494 32.3572 23.7098L32.2806 23.8119L28.0845 21.3886L27.9315 21.5672C27.3831 22.2304 26.7964 22.8171 26.1714 23.34C23.7737 25.3296 20.8147 26.3244 17.8558 26.3244C14.8968 26.3244 11.9379 25.3424 9.54009 23.3527C8.90239 22.8298 8.3157 22.2431 7.76728 21.5799L7.61423 21.4014L3.44364 23.8119L3.36712 23.7098C0.714268 20.0367 -0.344321 15.662 0.0893175 11.4404C0.522956 7.21881 2.44882 3.15026 5.77764 0.0892786L5.87967 0L17.8685 11.9888L29.8446 0L29.9339 0.0892786C33.2627 3.13751 35.1886 7.21881 35.6222 11.4404Z" fill="#29313D" fill-opacity="0.8"/>
<path d="M46.8838 18.6849C46.0293 18.315 45.3533 17.7793 44.8686 17.0906C44.384 16.4019 44.1289 15.5984 44.1289 14.6801H46.9348C46.9986 15.3688 47.2664 15.93 47.7511 16.3764C48.2357 16.8228 48.9117 17.0396 49.779 17.0396C50.6845 17.0396 51.386 16.8228 51.8961 16.3892C52.4063 15.9555 52.6486 15.3943 52.6486 14.7056C52.6486 14.1699 52.4956 13.7363 52.1767 13.3919C51.8579 13.0603 51.4753 12.7925 51.0034 12.6139C50.5315 12.4354 49.8938 12.2313 49.0647 12.0145C48.0189 11.7339 47.1771 11.4533 46.5267 11.1727C45.8762 10.8921 45.3278 10.4458 44.8686 9.85906C44.4095 9.25962 44.1799 8.46887 44.1799 7.47405C44.1799 6.55575 44.4095 5.75225 44.8686 5.06353C45.3278 4.37481 45.9655 3.85189 46.7945 3.48202C47.6235 3.11215 48.5801 2.93359 49.6642 2.93359C51.2074 2.93359 52.4828 3.31622 53.4649 4.09422C54.447 4.87221 54.9954 5.9308 55.1102 7.26998H52.215C52.164 6.68329 51.8961 6.18589 51.386 5.77776C50.8758 5.36962 50.2126 5.1528 49.3836 5.1528C48.6311 5.1528 48.0189 5.34412 47.547 5.72674C47.0751 6.10936 46.8328 6.65779 46.8328 7.38477C46.8328 7.86942 46.9858 8.27755 47.2792 8.59641C47.5725 8.91526 47.9551 9.15759 48.4143 9.33614C48.8734 9.5147 49.4984 9.71877 50.3019 9.93559C51.3605 10.2289 52.215 10.5223 52.8782 10.8029C53.5414 11.0962 54.1154 11.5426 54.5745 12.142C55.0464 12.7415 55.276 13.5577 55.276 14.5653C55.276 15.3816 55.0592 16.1468 54.6255 16.8611C54.1919 17.5753 53.5542 18.162 52.7252 18.5956C51.8961 19.0292 50.9013 19.2461 49.779 19.2461C48.7076 19.2461 47.7383 19.0548 46.8838 18.6849Z" fill="#29313D" fill-opacity="0.8"/>
<path d="M62.8134 6.82356C63.5787 6.42819 64.4459 6.22412 65.4025 6.22412C66.4993 6.22412 67.5069 6.49196 68.4252 7.04038C69.3308 7.58881 70.045 8.3413 70.5679 9.32336C71.0908 10.3054 71.3459 11.4278 71.3459 12.7032C71.3459 13.9786 71.0908 15.1137 70.5679 16.1085C70.045 17.1161 69.3308 17.8941 68.4252 18.4553C67.5197 19.0165 66.5121 19.2971 65.4025 19.2971C64.4332 19.2971 63.5787 19.1057 62.8262 18.7104C62.0737 18.315 61.4615 17.8303 60.9896 17.2564V25.1129H58.375V6.42819H60.9896V8.29028C61.4487 7.70359 62.0482 7.21894 62.8134 6.82356ZM68.1574 10.433C67.8003 9.79527 67.3284 9.31061 66.7289 8.99176C66.1422 8.66015 65.5045 8.49435 64.8413 8.49435C64.1781 8.49435 63.5532 8.66015 62.9665 9.00451C62.3798 9.34887 61.9079 9.83353 61.538 10.4712C61.1809 11.1089 61.0023 11.8742 61.0023 12.7415C61.0023 13.6087 61.1809 14.374 61.538 15.0244C61.8951 15.6749 62.367 16.1723 62.9665 16.5039C63.5532 16.8355 64.1781 17.0141 64.8413 17.0141C65.5173 17.0141 66.1422 16.8483 66.7289 16.5039C67.3156 16.1596 67.7875 15.6621 68.1574 14.9989C68.5145 14.3357 68.6931 13.5705 68.6931 12.7032C68.6931 11.8359 68.5145 11.0707 68.1574 10.433Z" fill="#29313D" fill-opacity="0.8"/>
<path d="M74.0882 4.27256C73.7693 3.95371 73.6035 3.55833 73.6035 3.07368C73.6035 2.58902 73.7693 2.2064 74.0882 1.87479C74.407 1.54319 74.8024 1.39014 75.2871 1.39014C75.7462 1.39014 76.1416 1.55594 76.4604 1.87479C76.7793 2.19364 76.9451 2.58902 76.9451 3.07368C76.9451 3.55833 76.7793 3.95371 76.4604 4.27256C76.1416 4.59141 75.7462 4.75721 75.2871 4.75721C74.8152 4.75721 74.407 4.59141 74.0882 4.27256ZM76.5752 6.428V19.0801H73.9606V6.428H76.5752Z" fill="#29313D" fill-opacity="0.8"/>
<path d="M79.9295 9.32336C80.4524 8.3413 81.1794 7.57605 82.0849 7.04038C82.9905 6.50471 84.0108 6.22412 85.1204 6.22412C85.9494 6.22412 86.7657 6.40268 87.5692 6.75979C88.3727 7.11691 89.0104 7.60156 89.4823 8.18825V2.0918H92.1224V19.0802H89.4823V17.1799C89.0487 17.7921 88.462 18.3022 87.6967 18.6976C86.9442 19.093 86.0642 19.2971 85.0949 19.2971C83.998 19.2971 82.9905 19.0165 82.0722 18.4553C81.1666 17.8941 80.4396 17.1161 79.9167 16.1085C79.3938 15.101 79.126 13.9658 79.126 12.7032C79.126 11.4405 79.4066 10.3054 79.9295 9.32336ZM88.9594 10.4712C88.6023 9.83353 88.1304 9.33612 87.5437 9.00451C86.957 8.6729 86.332 8.49435 85.6561 8.49435C84.9801 8.49435 84.3552 8.66015 83.7685 8.99176C83.1818 9.32336 82.7226 9.80802 82.3528 10.433C81.9956 11.0707 81.8171 11.8232 81.8171 12.6904C81.8171 13.5577 81.9956 14.323 82.3528 14.9862C82.7099 15.6494 83.1818 16.1468 83.7812 16.4912C84.3807 16.8355 84.9929 17.0013 85.6561 17.0013C86.332 17.0013 86.957 16.8355 87.5437 16.4912C88.1304 16.1596 88.6023 15.6621 88.9594 15.0117C89.3165 14.3612 89.495 13.596 89.495 12.7287C89.495 11.8742 89.3165 11.1089 88.9594 10.4712Z" fill="#29313D" fill-opacity="0.8"/>
<path d="M107.083 13.7363H97.4158C97.4924 14.7439 97.8622 15.5601 98.5382 16.1723C99.2142 16.7845 100.043 17.0906 101.012 17.0906C102.415 17.0906 103.41 16.5039 103.997 15.3178H106.816C106.433 16.4784 105.744 17.435 104.737 18.1747C103.729 18.9144 102.492 19.2843 101.012 19.2843C99.8008 19.2843 98.7168 19.0165 97.7602 18.468C96.8036 17.9196 96.0512 17.1544 95.5155 16.1723C94.9671 15.1902 94.6992 14.0424 94.6992 12.7415C94.6992 11.4405 94.9671 10.2927 95.49 9.31061C96.0129 8.32855 96.7654 7.5633 97.7219 7.02763C98.6785 6.49196 99.7753 6.22412 101.012 6.22412C102.211 6.22412 103.27 6.4792 104.201 7.00212C105.132 7.52504 105.859 8.25202 106.382 9.19582C106.905 10.1396 107.16 11.2237 107.16 12.4481C107.173 12.92 107.147 13.3537 107.083 13.7363ZM104.443 11.6191C104.431 10.6498 104.086 9.88454 103.41 9.29786C102.734 8.71117 101.905 8.43058 100.91 8.43058C100.005 8.43058 99.2397 8.72392 98.5892 9.29786C97.9515 9.87179 97.5689 10.6498 97.4413 11.6319H104.443V11.6191Z" fill="#29313D" fill-opacity="0.8"/>
<path d="M113.894 6.75979C114.532 6.40268 115.284 6.22412 116.152 6.22412V8.92799H115.488C114.468 8.92799 113.69 9.18307 113.154 9.70599C112.631 10.2289 112.364 11.1344 112.364 12.4099V19.0675H109.749V6.42819H112.364V8.26477C112.746 7.62707 113.256 7.12966 113.894 6.75979Z" fill="#29313D" fill-opacity="0.8"/>
<path d="M120.475 18.7486C119.684 18.3915 119.059 17.8941 118.6 17.2819C118.141 16.657 117.899 15.9682 117.86 15.203H120.564C120.615 15.7387 120.87 16.1851 121.329 16.5422C121.801 16.8993 122.375 17.0778 123.09 17.0778C123.829 17.0778 124.39 16.9376 124.799 16.657C125.207 16.3764 125.411 16.0065 125.411 15.5729C125.411 15.101 125.181 14.7438 124.735 14.5143C124.288 14.2847 123.561 14.0296 122.592 13.7618C121.648 13.5067 120.87 13.2516 120.271 13.0093C119.671 12.767 119.161 12.3843 118.715 11.8869C118.281 11.3768 118.064 10.7136 118.064 9.88454C118.064 9.20858 118.268 8.59638 118.664 8.0352C119.059 7.47402 119.633 7.04038 120.373 6.70878C121.113 6.37717 121.967 6.22412 122.936 6.22412C124.378 6.22412 125.538 6.59399 126.418 7.30822C127.298 8.0352 127.77 9.03002 127.834 10.2799H125.219C125.168 9.71874 124.939 9.25959 124.531 8.92799C124.123 8.59638 123.561 8.41782 122.86 8.41782C122.171 8.41782 121.648 8.54536 121.278 8.8132C120.909 9.08104 120.73 9.41264 120.73 9.84628C120.73 10.1779 120.858 10.4712 121.1 10.7008C121.342 10.9304 121.648 11.1089 121.993 11.2365C122.35 11.364 122.86 11.5298 123.549 11.7339C124.467 11.9762 125.219 12.2313 125.806 12.4736C126.393 12.7287 126.903 13.0986 127.337 13.5832C127.77 14.0679 127.987 14.7183 128 15.5346C128 16.2488 127.796 16.8993 127.4 17.4605C127.005 18.0216 126.444 18.468 125.717 18.7869C124.99 19.1057 124.135 19.2715 123.153 19.2715C122.158 19.2843 121.266 19.1057 120.475 18.7486Z" fill="#29313D" fill-opacity="0.8"/>
</g>
<defs>
<clipPath id="clip0_179_1063">
<rect width="128" height="26.3244" fill="white"/>
</clipPath>
</defs>
</svg>
