<svg width="140" height="24" viewBox="0 0 140 24" fill="none" xmlns="http://www.w3.org/2000/svg">
<g clip-path="url(#clip0_179_1049)">
<path fill-rule="evenodd" clip-rule="evenodd" d="M5.32514 12.4464L10.4507 7.32075V6.82191H6.248L7.03367 8.18125L4.38981 10.8376L0 3.21777H14.0673V8.81728L9.83966 13.045L10.775 14.6537L14.9653 10.451V10.4759V10.451L19.168 14.6537L20.1033 13.045L15.8756 8.81728V3.21777H29.9305L25.5407 10.8376L22.8968 8.19372L23.6825 6.83438H19.4798V7.33322L24.6054 12.4588C23.059 15.1401 21.5001 17.8338 19.9537 20.5151L14.9653 15.5766L9.97684 20.5026C8.43043 17.8214 6.88402 15.1401 5.32514 12.4464Z" fill="#29313D" fill-opacity="0.8"/>
<path d="M60.6464 1.93311L56.269 17.5967H52.5652L49.622 6.43515L46.5416 17.5967L42.8627 17.6217L38.6475 1.93311H42.0146L44.7707 14.1049L47.9633 1.93311H51.4677L54.4732 14.03L57.2543 1.93311H60.6464Z" fill="#29313D" fill-opacity="0.8"/>
<path d="M62.9032 3.15518C62.5291 2.80599 62.3545 2.3695 62.3545 1.84572C62.3545 1.32193 62.5416 0.885445 62.9032 0.536255C63.2649 0.174595 63.7263 0 64.275 0C64.8238 0 65.2852 0.174595 65.6593 0.523784C66.021 0.872974 66.208 1.30946 66.208 1.83324C66.208 2.35703 66.021 2.79352 65.6593 3.1427C65.2977 3.49189 64.8362 3.66649 64.275 3.66649C63.7263 3.67896 63.2649 3.50436 62.9032 3.15518ZM65.8339 5.16301V17.5967H62.6912V5.16301H65.8339Z" fill="#29313D" fill-opacity="0.8"/>
<path d="M68.8645 7.99408C69.3633 7.02134 70.0492 6.27308 70.9222 5.74929C71.7952 5.22551 72.7554 4.96362 73.8155 4.96362C74.6261 4.96362 75.3993 5.13821 76.1226 5.4874C76.8584 5.83659 77.4446 6.31049 77.8686 6.88416V0.985352H81.0612V17.5968H77.8686V15.7511C77.482 16.3622 76.9332 16.861 76.2349 17.2351C75.5365 17.6093 74.7134 17.7963 73.7905 17.7963C72.743 17.7963 71.7827 17.522 70.9222 16.9857C70.0492 16.4495 69.3633 15.6887 68.8645 14.7035C68.3656 13.7183 68.1162 12.5959 68.1162 11.3239C68.1162 10.0767 68.3656 8.96682 68.8645 7.99408ZM77.457 9.41578C77.1577 8.86706 76.7587 8.45551 76.2473 8.15621C75.736 7.86937 75.1873 7.71972 74.6136 7.71972C74.0275 7.71972 73.4912 7.8569 72.9924 8.14373C72.4936 8.43057 72.0945 8.84211 71.7952 9.39084C71.4834 9.93957 71.3337 10.5881 71.3337 11.3363C71.3337 12.0846 71.4834 12.7331 71.7952 13.3067C72.1069 13.8679 72.506 14.292 73.0049 14.5913C73.5037 14.8906 74.04 15.0402 74.6136 15.0402C75.1998 15.0402 75.7485 14.8906 76.2473 14.6037C76.7587 14.3169 77.1577 13.8929 77.457 13.3442C77.7563 12.7954 77.906 12.1469 77.906 11.3862C77.906 10.613 77.7563 9.96451 77.457 9.41578Z" fill="#29313D" fill-opacity="0.8"/>
<path d="M95.6153 12.3216H86.5239C86.5987 13.2195 86.9105 13.9179 87.4717 14.4292C88.0204 14.9405 88.7063 15.1899 89.5169 15.1899C90.6892 15.1899 91.5123 14.6911 92.0111 13.6809H95.4033C95.0416 14.8781 94.3557 15.8633 93.3331 16.6365C92.3104 17.4098 91.0633 17.7964 89.5793 17.7964C88.3821 17.7964 87.3095 17.5345 86.3617 16.9982C85.4139 16.462 84.6657 15.7137 84.1419 14.7409C83.6056 13.7682 83.3438 12.6458 83.3438 11.3738C83.3438 10.0892 83.6056 8.95438 84.1294 7.98164C84.6532 7.0089 85.389 6.26063 86.3243 5.73685C87.2721 5.21306 88.3571 4.95117 89.5793 4.95117C90.764 4.95117 91.8241 5.20059 92.7594 5.71191C93.6947 6.22322 94.418 6.94654 94.9418 7.88187C95.4531 8.8172 95.715 9.88971 95.715 11.0994C95.7026 11.5608 95.6776 11.9599 95.6153 12.3216ZM92.4476 10.214C92.4351 9.40334 92.1358 8.75484 91.5746 8.26847C91.001 7.7821 90.3151 7.54515 89.492 7.54515C88.7188 7.54515 88.0578 7.7821 87.534 8.256C86.9978 8.7299 86.6735 9.37839 86.5613 10.2264H92.4476V10.214Z" fill="#29313D" fill-opacity="0.8"/>
<path d="M105.318 5.51237C106.016 5.87403 106.577 6.34793 106.976 6.93407V5.16318H110.144V17.6841C110.144 18.8314 109.907 19.8665 109.446 20.7769C108.984 21.6873 108.286 22.3982 107.363 22.9344C106.44 23.4707 105.318 23.7326 103.996 23.7326C102.225 23.7326 100.778 23.321 99.6558 22.4979C98.5209 21.6748 97.8849 20.5525 97.7353 19.1308H100.853C101.015 19.7044 101.377 20.1534 101.913 20.4901C102.449 20.8268 103.123 20.9889 103.896 20.9889C104.806 20.9889 105.555 20.7146 106.116 20.1658C106.677 19.6171 106.964 18.794 106.964 17.6841V15.7511C106.565 16.3372 106.004 16.8236 105.293 17.2102C104.582 17.5968 103.771 17.7964 102.861 17.7964C101.813 17.7964 100.853 17.522 99.9925 16.9857C99.1195 16.4495 98.4336 15.6887 97.9348 14.7035C97.4359 13.7183 97.1865 12.5959 97.1865 11.3239C97.1865 10.0643 97.4359 8.95438 97.9348 7.98164C98.4336 7.00889 99.1195 6.26063 99.98 5.73685C100.841 5.21306 101.801 4.95117 102.861 4.95117C103.796 4.96364 104.607 5.13824 105.318 5.51237ZM106.527 9.41581C106.228 8.86708 105.829 8.45554 105.318 8.15623C104.806 7.8694 104.258 7.71974 103.684 7.71974C103.098 7.71974 102.562 7.85693 102.063 8.14376C101.564 8.43059 101.165 8.84214 100.865 9.39086C100.554 9.93959 100.404 10.5881 100.404 11.3363C100.404 12.0846 100.554 12.7331 100.865 13.3068C101.177 13.868 101.576 14.292 102.075 14.5913C102.574 14.8906 103.11 15.0402 103.684 15.0402C104.27 15.0402 104.819 14.8906 105.318 14.6038C105.829 14.3169 106.228 13.8929 106.527 13.3442C106.827 12.7955 106.976 12.147 106.976 11.3862C106.976 10.613 106.827 9.96453 106.527 9.41581Z" fill="#29313D" fill-opacity="0.8"/>
<path d="M113.162 7.99408C113.661 7.02134 114.347 6.27308 115.22 5.74929C116.093 5.22551 117.053 4.96362 118.113 4.96362C118.924 4.96362 119.697 5.13821 120.42 5.4874C121.156 5.83659 121.742 6.31049 122.166 6.88416V0.985352H125.359V17.5968H122.166V15.7511C121.78 16.3622 121.231 16.861 120.533 17.2351C119.834 17.6093 119.011 17.7963 118.088 17.7963C117.041 17.7963 116.081 17.522 115.22 16.9857C114.347 16.4495 113.661 15.6887 113.162 14.7035C112.663 13.7183 112.414 12.5959 112.414 11.3239C112.414 10.0767 112.663 8.96682 113.162 7.99408ZM121.742 9.41578C121.443 8.86706 121.044 8.45551 120.533 8.15621C120.021 7.86937 119.473 7.71972 118.899 7.71972C118.313 7.71972 117.777 7.8569 117.278 8.14373C116.779 8.43057 116.38 8.84211 116.081 9.39084C115.769 9.93957 115.619 10.5881 115.619 11.3363C115.619 12.0846 115.769 12.7331 116.081 13.3067C116.392 13.8679 116.791 14.292 117.29 14.5913C117.789 14.8906 118.325 15.0402 118.899 15.0402C119.485 15.0402 120.034 14.8906 120.533 14.6037C121.044 14.3169 121.443 13.8929 121.742 13.3442C122.042 12.7954 122.191 12.1469 122.191 11.3862C122.191 10.613 122.042 9.96451 121.742 9.41578Z" fill="#29313D" fill-opacity="0.8"/>
<path d="M139.912 12.3216H130.821C130.896 13.2195 131.207 13.9179 131.769 14.4292C132.317 14.9405 133.003 15.1899 133.814 15.1899C134.986 15.1899 135.809 14.6911 136.308 13.6809H139.7C139.338 14.8781 138.653 15.8633 137.63 16.6365C136.607 17.4098 135.36 17.7964 133.876 17.7964C132.679 17.7964 131.606 17.5345 130.659 16.9982C129.711 16.462 128.963 15.7137 128.439 14.7409C127.903 13.7682 127.641 12.6458 127.641 11.3738C127.641 10.0892 127.903 8.95438 128.426 7.98164C128.95 7.0089 129.686 6.26063 130.621 5.73685C131.569 5.21306 132.654 4.95117 133.876 4.95117C135.061 4.95117 136.121 5.20059 137.056 5.71191C137.992 6.22322 138.715 6.94654 139.239 7.88187C139.75 8.8172 140.012 9.88971 140.012 11.0994C139.999 11.5608 139.962 11.9599 139.912 12.3216ZM136.744 10.214C136.732 9.40334 136.433 8.75484 135.872 8.26847C135.298 7.7821 134.612 7.54515 133.789 7.54515C133.016 7.54515 132.355 7.7821 131.831 8.256C131.295 8.7299 130.97 9.37839 130.858 10.2264H136.744V10.214Z" fill="#29313D" fill-opacity="0.8"/>
</g>
<defs>
<clipPath id="clip0_179_1049">
<rect width="140" height="23.7324" fill="white"/>
</clipPath>
</defs>
</svg>
